<?xml version="1.0" standalone="no"?>
<!DOCTYPE svg PUBLIC "-//W3C//DTD SVG 20010904//EN"
 "http://www.w3.org/TR/2001/REC-SVG-20010904/DTD/svg10.dtd">
<svg version="1.0" xmlns="http://www.w3.org/2000/svg"
 width="225.000000pt" height="225.000000pt" viewBox="0 0 225.000000 225.000000"
 preserveAspectRatio="xMidYMid meet">

<g transform="translate(0.000000,225.000000) scale(0.100000,-0.100000)"
fill="#000000" stroke="none">
<path d="M1636 2163 c-18 -35 -62 -76 -103 -97 -44 -22 -209 -22 -300 1 -86
21 -282 24 -336 5 -76 -27 -136 -105 -137 -177 0 -23 -15 -46 -68 -100 -39
-42 -83 -101 -105 -143 -38 -73 -78 -210 -91 -312 l-7 -55 23 35 c27 39 63 56
102 46 20 -5 26 -12 26 -35 0 -67 13 -119 30 -124 14 -4 19 4 23 45 4 27 14
64 23 81 44 84 53 108 74 183 13 50 32 94 49 114 l27 33 69 -13 c101 -18 294
-9 367 17 l57 20 34 -36 c44 -45 50 -58 76 -156 12 -44 36 -103 52 -132 19
-33 33 -73 36 -108 3 -30 9 -55 12 -55 22 1 34 25 40 81 8 79 14 89 53 89 22
0 40 -10 64 -36 l34 -35 -6 33 c-40 241 -85 348 -191 459 l-35 37 27 42 c26
41 66 138 78 191 6 24 3 22 -37 -18 -24 -23 -48 -43 -54 -43 -6 0 10 21 36 48
28 27 54 67 64 95 19 52 16 62 -6 20z"/>
<path d="M655 1008 c12 -68 49 -171 78 -213 15 -22 27 -35 27 -30 0 5 9 -8 21
-30 11 -22 33 -51 47 -65 17 -17 21 -18 12 -5 -8 11 11 -3 41 -31 73 -67 102
-87 59 -39 l-35 39 45 -38 c25 -20 73 -51 108 -67 63 -30 64 -30 105 -14 23 9
59 27 79 41 42 27 53 30 42 12 -11 -19 21 7 85 66 30 28 49 42 42 31 -7 -11 3
-2 23 20 20 21 39 49 42 62 4 13 12 23 20 23 25 0 104 200 104 264 0 26 -28
18 -65 -19 -23 -22 -55 -40 -89 -50 -60 -18 -49 -21 -169 48 -25 14 -45 17
-87 12 -30 -3 -64 -5 -75 -4 -94 10 -134 3 -176 -27 -24 -17 -53 -34 -63 -38
-33 -12 -120 21 -157 59 -19 19 -42 35 -52 35 -16 0 -18 -5 -12 -42z m475 -93
c39 0 66 7 93 23 44 25 53 16 44 -44 -15 -91 -84 -132 -188 -111 -62 13 -105
83 -92 150 l5 24 41 -21 c27 -13 62 -21 97 -21z m198 -305 c-7 -11 -19 -22
-28 -25 -8 -4 -4 5 9 19 29 31 36 33 19 6z"/>
<path d="M795 551 c-269 -94 -457 -265 -544 -493 l-11 -28 885 0 885 0 -26 58
c-78 178 -209 314 -394 407 -55 28 -213 85 -235 85 -7 0 -29 -26 -48 -59 -62
-99 -179 -253 -187 -244 -23 26 -164 221 -186 259 -15 25 -33 44 -42 43 -10 0
-53 -13 -97 -28z"/>
</g>
</svg>
